<?xml version="1.0" encoding="UTF-8"?>
<svg id="Camada_1" data-name="Camada 1" xmlns="http://www.w3.org/2000/svg" viewBox="0 0 400 152"><metadata><c2pa:manifest xmlns:c2pa="http://c2pa.org/manifest">AAAsZ2p1bWIAAAAeanVtZGMycGEAEQAQgAAAqgA4m3EDYzJwYQAAACxBanVtYgAAAEdqdW1kYzJtYQARABCAAACqADibcQN1cm46dXVpZDoyMmUxMjBmMC0yZTZhLTQwOGMtOTJmZi0zNTEwMzRhMTAzNzIAAAABp2p1bWIAAAApanVtZGMyYXMAEQAQgAAAqgA4m3EDYzJwYS5hc3NlcnRpb25zAAAAAMpqdW1iAAAAJmp1bWRjYm9yABEAEIAAAKoAOJtxA2MycGEuYWN0aW9ucwAAAACcY2JvcqFnYWN0aW9uc4GjZmFjdGlvbmtjMnBhLmVkaXRlZG1zb2Z0d2FyZUFnZW50bUFkb2JlIEZpcmVmbHlxZGlnaXRhbFNvdXJjZVR5cGV4Rmh0dHA6Ly9jdi5pcHRjLm9yZy9uZXdzY29kZXMvZGlnaXRhbHNvdXJjZXR5cGUvdHJhaW5lZEFsZ29yaXRobWljTWVkaWEAAACsanVtYgAAAChqdW1kY2JvcgARABCAAACqADibcQNjMnBhLmhhc2guZGF0YQAAAAB8Y2JvcqVqZXhjbHVzaW9uc4GiZXN0YXJ0GMdmbGVuZ3RoGTs0ZG5hbWVuanVtYmYgbWFuaWZlc3RjYWxnZnNoYTI1NmRoYXNoWCAUutsDXiVsXXzmctzHYYv61PY5YiA5QYqZ0IRMA6qmimNwYWRJAAAAAAAAAAAAAAACC2p1bWIAAAAkanVtZGMyY2wAEQAQgAAAqgA4m3EDYzJwYS5jbGFpbQAAAAHfY2JvcqhoZGM6dGl0bGVvR2VuZXJhdGVkIEltYWdlaWRjOmZvcm1hdG1pbWFnZS9zdmcreG1samluc3RhbmNlSUR4LHhtcDppaWQ6Njg0OGVjMmUtNTc5MS00ZGEyLTg5OTItMTIwOTE5MzNkMzZhb2NsYWltX2dlbmVyYXRvcng2QWRvYmVfSWxsdXN0cmF0b3IvMjguMCBhZG9iZV9jMnBhLzAuNy42IGMycGEtcnMvMC4yNS4ydGNsYWltX2dlbmVyYXRvcl9pbmZvgb9kbmFtZXFBZG9iZSBJbGx1c3RyYXRvcmd2ZXJzaW9uZDI4LjD/aXNpZ25hdHVyZXgZc2VsZiNqdW1iZj1jMnBhLnNpZ25hdHVyZWphc3NlcnRpb25zgqJjdXJseCdzZWxmI2p1bWJmPWMycGEuYXNzZXJ0aW9ucy9jMnBhLmFjdGlvbnNkaGFzaFgg66xm4WqDn3xgnOk59f7WI0GCp10rxJISEEb0ImTQK8GiY3VybHgpc2VsZiNqdW1iZj1jMnBhLmFzc2VydGlvbnMvYzJwYS5oYXNoLmRhdGFkaGFzaFgg03+AqsqhHCI4D++nlYFRN78JgQQD96T5zYso93pueB5jYWxnZnNoYTI1NgAAKEBqdW1iAAAAKGp1bWRjMmNzABEAEIAAAKoAOJtxA2MycGEuc2lnbmF0dXJlAAAAKBBjYm9y0oREoQE4JKNmc2lnVHN0oWl0c3RUb2tlbnOBoWN2YWxZDjgwgg40MAMCAQAwgg4rBgkqhkiG9w0BBwKggg4cMIIOGAIBAzEPMA0GCWCGSAFlAwQCAQUAMIGDBgsqhkiG9w0BCRABBKB0BHIwcAIBAQYJYIZIAYb9bAcBMDEwDQYJYIZIAWUDBAIBBQAEIN8AyvcQWF31L814RiijuZvix2DqlQkm0DsslMzxK0xTAhEA7W6LP9cdvknGLI0feKe1yRgPMjAyMzExMDgxMTQzNDFaAgkA1v5V7TMBJy2gggu9MIIFBzCCAu+gAwIBAgIQBR6ekdcekQq75D1c7dDd2TANBgkqhkiG9w0BAQsFADBjMQswCQYDVQQGEwJVUzEXMBUGA1UEChMORGlnaUNlcnQsIEluYy4xOzA5BgNVBAMTMkRpZ2lDZXJ0IFRydXN0ZWQgRzQgUlNBNDA5NiBTSEEyNTYgVGltZVN0YW1waW5nIENBMB4XDTIzMDkwODAwMDAwMFoXDTM0MTIwNzIzNTk1OVowWDELMAkGA1UEBhMCVVMxFzAVBgNVBAoTDkRpZ2lDZXJ0LCBJbmMuMTAwLgYDVQQDEydEaWdpQ2VydCBBZG9iZSBBQVRMIFRpbWVzdGFtcCBSZXNwb25kZXIwWTATBgcqhkjOPQIBBggqhkjOPQMBBwNCAARNLK5R+QP/tefzBZdWrDYfEPE7mzrBFX7tKpSaxdLJo7cC9SHh2fwAeyefbtU66YaNQQzfOZX02N9KzQbH0/pso4IBizCCAYcwDgYDVR0PAQH/BAQDAgeAMAwGA1UdEwEB/wQCMAAwFgYDVR0lAQH/BAwwCgYIKwYBBQUHAwgwIAYDVR0gBBkwFzAIBgZngQwBBAIwCwYJYIZIAYb9bAcBMB8GA1UdIwQYMBaAFLoW2W1NhS9zKXaaL3WMaiCPnshvMB0GA1UdDgQWBBSwNapWwyGpi87TuLyLFiVXne804TBaBgNVHR8EUzBRME+gTaBLhklodHRwOi8vY3JsMy5kaWdpY2VydC5jb20vRGlnaUNlcnRUcnVzdGVkRzRSU0E0MDk2U0hBMjU2VGltZVN0YW1waW5nQ0EuY3JsMIGQBggrBgEFBQcBAQSBgzCBgDAkBggrBgEFBQcwAYYYaHR0cDovL29jc3AuZGlnaWNlcnQuY29tMFgGCCsGAQUFBzAChkxodHRwOi8vY2FjZXJ0cy5kaWdpY2VydC5jb20vRGlnaUNlcnRUcnVzdGVkRzRSU0E0MDk2U0hBMjU2VGltZVN0YW1waW5nQ0EuY3J0MA0GCSqGSIb3DQEBCwUAA4ICAQB4K4xCx4QQhFiUgskV+5bC9AvSyYG19a8lWMkjUcR5DEdi6guz0GUSYAzUfpCaKfD+b9gc6f4zK88OFOKWOq2L9yPB6RZSWuLgcFEyFIB1qYvF8XdSRBF/eDzjg4ux8knpF+tANOeQaMxW+xhlWsW9C63kE0V55K+oIDzVD1/RoftknDsZU3UEC4GW5HWL8aNwKenMva4mYo0cTmaojslksTFIYCsXis8KxVul23tGsDYTlF2cyMXOIsaSs1kiLaTyd9GYgUJ+PVNwA2E57IWzfWZEwNaR3/zaL9mVL73XZGfFGL8KPbwby0w755gAZ0TASml2ALN2Qr8PQpAzzlk3lCTBUQLZlMedqIWgN5w/GwielH6UNqRXznUocKW+hir9IPgYHHSBtixzydFH5q/l5qYGYKvxyIHtIY3AgA6Yw4Kts+AdC+MbQANTPDK1MdNocW+9dOJxSqjLr+cyU0Jd7IMKl1Mj/vcx0D/cv2eRcfwEFqzlwluenVez+HBQSZfMx6op5YZDkrWdZttvvR5avngtISdpZBdS7s0XSSW/+dS16DykZ6KRQ54Ol6aA+3husOGKQMffj9NCblKAbGEq3bLhYslskEBgQJ4yOvYIG0i3FvoScrbop2sWsFZSLSZEtnleWeF7MT4O3/NrkZHbTdIUx3iPdwjdzlnkXm5yuzCCBq4wggSWoAMCAQICEAc2N7ckVHzYR6z9KGYqXlswDQYJKoZIhvcNAQELBQAwYjELMAkGA1UEBhMCVVMxFTATBgNVBAoTDERpZ2lDZXJ0IEluYzEZMBcGA1UECxMQd3d3LmRpZ2ljZXJ0LmNvbTEhMB8GA1UEAxMYRGlnaUNlcnQgVHJ1c3RlZCBSb290IEc0MB4XDTIyMDMyMzAwMDAwMFoXDTM3MDMyMjIzNTk1OVowYzELMAkGA1UEBhMCVVMxFzAVBgNVBAoTDkRpZ2lDZXJ0LCBJbmMuMTswOQYDVQQDEzJEaWdpQ2VydCBUcnVzdGVkIEc0IFJTQTQwOTYgU0hBMjU2IFRpbWVTdGFtcGluZyBDQTCCAiIwDQYJKoZIhvcNAQEBBQADggIPADCCAgoCggIBAMaGNQZJs8E9cklRVcclA8TykTepl1Gh1tKD0Z5Mom2gsMyD+Vr2EaFEFUJfpIjzaPp985yJC3+dH54PMx9QEwsmc5Zt+FeoAn39Q7SE2hHxc7Gz7iuAhIoiGN/r2j3EF3+rGSs+QtxnjupRPfDWVtTnKC3r07G1decfBmWNlCnT2exp39mQh0YAe9tEQYncfGpXevA3eZ9drMvohGS0UvJ2R/dhgxndX7RUCyFobjchu0CsX7LeSn3O9TkSZ+8OpWNs5KbFHc02DVzV5huowWR0QKfAcsW6Th+xtVhNef7Xj3OTrCw54qVI1vCwMROpVymWJy71h6aPTnYVVSZwmCZ/oBpHIEPjQ2OAe3VuJyWQmDo4EbP29p7mO1vsgd4iFNmCKseSv6De4z6ic/rnH1pslPJSlRErWHRAKKtzQ87fSqEcazjFKfPKqpZzQmiftkaznTqj1QPgv/CiPMpC3BhIfxQ0z9JMq++bPf4OuGQq+nUoJEHtQr8FnGZJUlD0UfM2SU2LINIsVzV5K6jzRWC8I41Y99xh3pP+OcD5sjClTNfpmEpYPtMDiP6zj9NeS3YSUZPJjAw7W4oiqMEmCPkUEBIDfV8ju2TjY+Cm4T72wnSyPx4JduyrXUZ14mCjWAkBKAAOhFTuzuldyF4wEr1GnrXTdrnSDmuZDNIztM2xAgMBAAGjggFdMIIBWTASBgNVHRMBAf8ECDAGAQH/AgEAMB0GA1UdDgQWBBS6FtltTYUvcyl2mi91jGogj57IbzAfBgNVHSMEGDAWgBTs1+OC0nFdZEzfLmc/57qYrhwPTzAOBgNVHQ8BAf8EBAMCAYYwEwYDVR0lBAwwCgYIKwYBBQUHAwgwdwYIKwYBBQUHAQEEazBpMCQGCCsGAQUFBzABhhhodHRwOi8vb2NzcC5kaWdpY2VydC5jb20wQQYIKwYBBQUHMAKGNWh0dHA6Ly9jYWNlcnRzLmRpZ2ljZXJ0LmNvbS9EaWdpQ2VydFRydXN0ZWRSb290RzQuY3J0MEMGA1UdHwQ8MDowOKA2oDSGMmh0dHA6Ly9jcmwzLmRpZ2ljZXJ0LmNvbS9EaWdpQ2VydFRydXN0ZWRSb290RzQuY3JsMCAGA1UdIAQZMBcwCAYGZ4EMAQQCMAsGCWCGSAGG/WwHATANBgkqhkiG9w0BAQsFAAOCAgEAfVmOwJO2b5ipRCIBfmbW2CFC4bAYLhBNE88wU86/GPvHUF3iSyn7cIoNqilp/GnBzx0H6T5gyNgL5Vxb122H+oQgJTQxZ822EpZvxFBMYh0MCIKoFr2pVs8Vc40BIiXOlWk/R3f7cnQU1/+rT4osequFzUNf7WC2qk+RZp4snuCKrOX9jLxkJodskr2dfNBwCnzvqLx1T7pa96kQsl3p/yhUifDVinF2ZdrM8HKjI/rAJ4JErpknG6skHibBt94q6/aesXmZgaNWhqsKRcnfxI2g55j7+6adcq/Ex8HBanHZxhOACcS2n82HhyS7T6NJuXdmkfFynOlLAlKnN36TU6w7HQhJD5TNOXrd/yVjmScsPT9rp/Fmw0HNT7ZAmyEhQNC3EyTN3B14OuSereU0cZLXJmvkOHOrpgFPvT87eK1MrfvElXvtCl8zOYdBeHo46Zzh3SP9HSjTx/no8Zhf+yvYfvJGnXUsHicsJttvFXseGYs2uJPU5vIXmVnKcPA3v5gA3yAWTyf7YGcWoWa63VXAOimGsJigK+2VQbc61RWYMbRiCQ8KvYHZE/6/pNHzV9m8BPqC3jLfBInwAM1dwvnQI38AC+R2AibZ8GV2QqYphwlHK+Z/GqSFD/yYlvZVVCsfgPrA8g4r5db7qS9EFUrnEw4d2zc4GqEr9u3WfPwxggG5MIIBtQIBATB3MGMxCzAJBgNVBAYTAlVTMRcwFQYDVQQKEw5EaWdpQ2VydCwgSW5jLjE7MDkGA1UEAxMyRGlnaUNlcnQgVHJ1c3RlZCBHNCBSU0E0MDk2IFNIQTI1NiBUaW1lU3RhbXBpbmcgQ0ECEAUenpHXHpEKu+Q9XO3Q3dkwDQYJYIZIAWUDBAIBBQCggdEwGgYJKoZIhvcNAQkDMQ0GCyqGSIb3DQEJEAEEMBwGCSqGSIb3DQEJBTEPFw0yMzExMDgxMTQzNDFaMCsGCyqGSIb3DQEJEAIMMRwwGjAYMBYEFNkauTP+F63pgh6mE/WkOnFOPn59MC8GCSqGSIb3DQEJBDEiBCB8Nogg95feWFw5H/taDbPQEg3p8HT3btxywYbbsI3mYzA3BgsqhkiG9w0BCRACLzEoMCYwJDAiBCCC2vGUlXs2hAJFj9UnAGn+YscUVvqeC4ar+CfoUyAn2TAKBggqhkjOPQQDAgRIMEYCIQDOqBI9k7xJpNkG4yXwSJwuFbNEQy77GkkhujyMpLoBgQIhALDgxoajCcbFg7pzmCArEKwpss5T9lSSk9HVz4rTCnCkZ3g1Y2hhaW6CWQYzMIIGLzCCBBegAwIBAgIQG1sLO9qw5F3y8w2eVNHa0jANBgkqhkiG9w0BAQsFADB1MQswCQYDVQQGEwJVUzEjMCEGA1UEChMaQWRvYmUgU3lzdGVtcyBJbmNvcnBvcmF0ZWQxHTAbBgNVBAsTFEFkb2JlIFRydXN0IFNlcnZpY2VzMSIwIAYDVQQDExlBZG9iZSBQcm9kdWN0IFNlcnZpY2VzIEczMB4XDTIzMDIwMTAwMDAwMFoXDTI0MDIwMTIzNTk1OVowgaExETAPBgNVBAMMCGNhaS1wcm9kMRwwGgYDVQQLDBNDb250ZW50IENyZWRlbnRpYWxzMRMwEQYDVQQKDApBZG9iZSBJbmMuMREwDwYDVQQHDAhTYW4gSm9zZTETMBEGA1UECAwKQ2FsaWZvcm5pYTELMAkGA1UEBhMCVVMxJDAiBgkqhkiG9w0BCQEWFWdycC1jYWktb3BzQGFkb2JlLmNvbTCCASIwDQYJKoZIhvcNAQEBBQADggEPADCCAQoCggEBAO/TAKd9hj2WQcOzKStMbsViWdgcFzK5qW4Pm71QuPO/4WxNY4uDw2GvP1FPEj0R4Fu7dabt/i+o+xBh/GQSnTAhroNWYQ5mFsB5F9uHJtZD8Pha+9yTiYRlH5BmZOkifsdfrWBu0wUeUlTGRgFy0igC31MEAVvP13kiDZYbRuwff1vr/xRJecgiTgUHp20FFPXF4TBIO3A53VgGldc0EmZFYdc0llnzmh/a0FN6yD+Qy9Os4knFgNn3tTjXrBy9tWiaV56z41dRjf9kHjEf42xmKWzubVsva/aFKceIuipl5QqSVsdSZPhmmOtkJ224ixabmPY89cqvscpS4JtlJcECAwEABaOCAYwwggGIMAwGA1UdEwEB/wQCMAAwDgYDVR0PAQH/BAQDAgeAMB4GA1UdJQQXMBUGCSqGSIb3LwEBDAYIKwYBBQUHAwQwgY4GA1UdIASBhjCBgzCBgAYJKoZIhvcvAQIDMHMwcQYIKwYBBQUHAgIwZQxjWW91IGFyZSBub3QgcGVybWl0dGVkIHRvIHVzZSB0aGlzIExpY2Vuc2UgQ2VydGlmaWNhdGUgZXhjZXB0IGFzIHBlcm1pdHRlZCBieSB0aGUgbGljZW5zZSBhZ3JlZW1lbnQuMF0GA1UdHwRWMFQwUqBQoE6GTGh0dHA6Ly9wa2ktY3JsLnN5bWF1dGguY29tL2NhXzdhNWMzYTBjNzMxMTc0MDZhZGQxOTMxMmJjMWJjMjNmL0xhdGVzdENSTC5jcmwwNwYIKwYBBQUHAQEEKzApMCcGCCsGAQUFBzABhhtodHRwOi8vcGtpLW9jc3Auc3ltYXV0aC5jb20wHwYDVR0jBBgwFoAUVyl6Mk3M/uQ1TsAfJHPOc1Or32owDQYJKoZIhvcNAQELBQADggIBAFeOUZrfIAr8aKOfqf8k1T0VmbvYw/q9zlzOtZ73LRP4RrC5G+GkPkR2LVOdeSul7ywySBKNMZ1tj7IaGrzOUJZB5c3X9pajcv1evW43Fj+hWkufS5ZZ+d8nvJH2AqX/Kgx+GPJ1Pi3V9ceL8yF+GtZJVEepfZTfVQUbP97b3w/aS/6+qHOkhSjVuP6OJu2g8swxBwI5O0qIk5OHijdVJmnBAMRELOj3U2QX4udmPBiXp8TlRIiSD+gKiiZfFI+mjDJsOtxEn2KVu0lwRHjz8saDDO/9zs5h2uifg+cRebUWQ5pWP5BF/s7CI1OLOieEjMtHlV+nRAc5a/9s/O8KM9B35evRDjTfZaVLFDCiy01MA+2hUBTg4LBUfcRyHfx6YnTT/p+QMJ2vsw3z/ifYtI2sxS9oERl2YuoMIGc7TZ1sWuamDelNzQWpFDgYv/zymNE1IzLm1T1KhCdIIZioiyN8vwDOA8QaJddGAAFhzW5d5x/j95rJvcrYw+zuGdZNtQqkcckjDGl03e9MZ1k1anP07F+6jd4QtCWRO8AIeCqRpeL8UBqcd7k8KGfp+vX/hw0XyCgPRu48CmBLfPPCqNGHGsfwhLA98mfwmrO6sxosMyedzXy0fNSIy1fveN/qheHu+gLFf9PgPecU+XFTeibZylwtDVZ3jTbrHXyuVIZHWQalMIIGoTCCBImgAwIBAgIQDKi2VHuJ5tIGiXXNi5uJ4jANBgkqhkiG9w0BAQsFADBsMQswCQYDVQQGEwJVUzEjMCEGA1UEChMaQWRvYmUgU3lzdGVtcyBJbmNvcnBvcmF0ZWQxHTAbBgNVBAsTFEFkb2JlIFRydXN0IFNlcnZpY2VzMRkwFwYDVQQDExBBZG9iZSBSb290IENBIEcyMB4XDTE2MTEyOTAwMDAwMFoXDTQxMTEyODIzNTk1OVowdTELMAkGA1UEBhMCVVMxIzAhBgNVBAoTGkFkb2JlIFN5c3RlbXMgSW5jb3Jwb3JhdGVkMR0wGwYDVQQLExRBZG9iZSBUcnVzdCBTZXJ2aWNlczEiMCAGA1UEAxMZQWRvYmUgUHJvZHVjdCBTZXJ2aWNlcyBHMzCCAiIwDQYJKoZIhvcNAQEBBQADggIPADCCAgoCggIBALcfLr29CbNcSGz+DIOubAHqUXglpIA+iaexsohk2vaJdoH5+R3zlfx4mI2Yjs/k7hxVPg1zWnfOsRKoFXhlTJbyBxnvxB3CgcbxA13ZU1wecyBJH5dP0hp+yer01/DDcm30oveXkA1DmfX4wmqvjwRY0uWX3jZs4v8kfjLANIyiqFmq0kQhRRQaVBUFnwIC8lzssTp10DkLnY8TY+lrtF9CAdd/iB9dVnCnFhFlzOI+I4eoS8tvQndxKFRt6MXFXpzBfxDIA9rV48eDVG0zQdf4PfjEejcOTIaeZP4N2rTRMQMYbboAvk90g0oUhCX7NqrookVB7V90YTnCtbNTiYE+bNrPcRsuf7sVaXACGitiogyV1t8cTfJ1z5pNTUlbv5sbX2qa+E70iW4a1O1AN6oUGPZ+Dp9rGx9V9U8Puy03pPCggOWQ4IThET4iKfybfPd6qL9WxOayZGoHFYNFqo4fPTYQmgQPFckbd6L5RsginTVdlC925+b3RbE5O6qpqfZmpM9f0rlV2MSH+i+vvEVzmrV1mj5JrnLixNUzznj+0tTeSU6BQrPNJdg9hLcaEFxgkePCv3E1Eec1f30PoXSDs6KNJxZ++2PGHXdpO/8fQRO/KZqHjJ8OlV2H1wrlhII+qe46Wy6MUDKFjAlc5YO9llTYSRZUsOGg/H3Ons3hAgMBAAGjggE0MIIBMDASBgNVHRMBAf8ECDAGAQH/AgEAMDUGA1UdHwQuMCwwKqAooCaGJGh0dHA6Ly9jcmwuYWRvYmUuY29tL2Fkb2Jlcm9vdGcyLmNybDAOBgNVHQ8BAf8EBAMCAQYwFAYDVR0lBA0wCwYJKoZIhvcvAQEHMFcGA1UdIARQME4wTAYJKoZIhvcvAQIDMD8wPQYIKwYBBQUHAgEWMWh0dHBzOi8vd3d3LmFkb2JlLmNvbS9taXNjL3BraS9wcm9kX3N2Y2VfY3BzLmh0bWwwJAYDVR0RBB0wG6QZMBcxFTATBgNVBAMTDFNZTUMtNDA5Ni0zMzAdBgNVHQ4EFgQUVyl6Mk3M/uQ1TsAfJHPOc1Or32owHwYDVR0jBBgwFoAUphzhbVQkTKiPSHK/bqmM1eTsMdQwDQYJKoZIhvcNAQELBQADggIBAHHO5QeMptwt3MjgO2VeAJKBleuVICSvn2k4Xcl88bjapU0AZTslwRhcnr5Zt9wbBjtZgyX6M7si8k9vuyFcVhb1ucmDFfuUtTXgoTFyGZws1jV57oiEEnZjw/NkxFQpJ3kKRRE+DQ8EsaPP8pH8Oh8fH4bis9MI4Y5FjF5it3TWVyLmFXG8pxy8iTswPr1lN7B9k9Iz7RaexTd/RmZ3uGBtGlTJZx4bR4cWl1Qor9kVaEeMNULbyh0Kc3zzm0edwpe+Ii0rRlRSj8Ai2EUqWEReyer1Uv18VuC87zdm+lRCjnLyZjdy4acRUZd2GM1vncJ8LW7h1uliZZo332y5tTMSxRpRveWgs99V/MM6mDbL2/fuQF3L/C5evbS15jtTrbGP98CCzVBKeFS2UxN8Kpt5/ITJwpWYoismQkuy+BNJgpW8fgUUjB93laOo4L3uNf3ytxUDOEAjSJKRrOxY4y8vqbQvicslqnH7zkaxVfxjoAeYQ/huYISXCKXooA/5R7AkWLDmubBXakRIcCFi5klrTcHy2XSd3ZAnO8kaZt4GpeqkX05GKcUzccSsrym5GiQ6MUfb7Vqwt4ja0HfVb8Qt017bs6B26rpnqoHAKnn1hfburJ0OEPRZF83riQKzbkrzyIYAY1bYIB9MNL5v5ZgkGIgv2NdhngsX4GJS9927Y3BhZFkLuwAAAAAAAAAAAAAAAAAAAAAAAAAAAAAAAAAAAAAAAAAAAAAAAAAAAAAAAAAAAAAAAAAAAAAAAAAAAAAAAAAAAAAAAAAAAAAAAAAAAAAAAAAAAAAAAAAAAAAAAAAAAAAAAAAAAAAAAAAAAAAAAAAAAAAAAAAAAAAAAAAAAAAAAAAAAAAAAAAAAAAAAAAAAAAAAAAAAAAAAAAAAAAAAAAAAAAAAAAAAAAAAAAAAAAAAAAAAAAAAAAAAAAAAAAAAAAAAAAAAAAAAAAAAAAAAAAAAAAAAAAAAAAAAAAAAAAAAAAAAAAAAAAAAAAAAAAAAAAAAAAAAAAAAAAAAAAAAAAAAAAAAAAAAAAAAAAAAAAAAAAAAAAAAAAAAAAAAAAAAAAAAAAAAAAAAAAAAAAAAAAAAAAAAAAAAAAAAAAAAAAAAAAAAAAAAAAAAAAAAAAAAAAAAAAAAAAAAAAAAAAAAAAAAAAAAAAAAAAAAAAAAAAAAAAAAAAAAAAAAAAAAAAAAAAAAAAAAAAAAAAAAAAAAAAAAAAAAAAAAAAAAAAAAAAAAAAAAAAAAAAAAAAAAAAAAAAAAAAAAAAAAAAAAAAAAAAAAAAAAAAAAAAAAAAAAAAAAAAAAAAAAAAAAAAAAAAAAAAAAAAAAAAAAAAAAAAAAAAAAAAAAAAAAAAAAAAAAAAAAAAAAAAAAAAAAAAAAAAAAAAAAAAAAAAAAAAAAAAAAAAAAAAAAAAAAAAAAAAAAAAAAAAAAAAAAAAAAAAAAAAAAAAAAAAAAAAAAAAAAAAAAAAAAAAAAAAAAAAAAAAAAAAAAAAAAAAAAAAAAAAAAAAAAAAAAAAAAAAAAAAAAAAAAAAAAAAAAAAAAAAAAAAAAAAAAAAAAAAAAAAAAAAAAAAAAAAAAAAAAAAAAAAAAAAAAAAAAAAAAAAAAAAAAAAAAAAAAAAAAAAAAAAAAAAAAAAAAAAAAAAAAAAAAAAAAAAAAAAAAAAAAAAAAAAAAAAAAAAAAAAAAAAAAAAAAAAAAAAAAAAAAAAAAAAAAAAAAAAAAAAAAAAAAAAAAAAAAAAAAAAAAAAAAAAAAAAAAAAAAAAAAAAAAAAAAAAAAAAAAAAAAAAAAAAAAAAAAAAAAAAAAAAAAAAAAAAAAAAAAAAAAAAAAAAAAAAAAAAAAAAAAAAAAAAAAAAAAAAAAAAAAAAAAAAAAAAAAAAAAAAAAAAAAAAAAAAAAAAAAAAAAAAAAAAAAAAAAAAAAAAAAAAAAAAAAAAAAAAAAAAAAAAAAAAAAAAAAAAAAAAAAAAAAAAAAAAAAAAAAAAAAAAAAAAAAAAAAAAAAAAAAAAAAAAAAAAAAAAAAAAAAAAAAAAAAAAAAAAAAAAAAAAAAAAAAAAAAAAAAAAAAAAAAAAAAAAAAAAAAAAAAAAAAAAAAAAAAAAAAAAAAAAAAAAAAAAAAAAAAAAAAAAAAAAAAAAAAAAAAAAAAAAAAAAAAAAAAAAAAAAAAAAAAAAAAAAAAAAAAAAAAAAAAAAAAAAAAAAAAAAAAAAAAAAAAAAAAAAAAAAAAAAAAAAAAAAAAAAAAAAAAAAAAAAAAAAAAAAAAAAAAAAAAAAAAAAAAAAAAAAAAAAAAAAAAAAAAAAAAAAAAAAAAAAAAAAAAAAAAAAAAAAAAAAAAAAAAAAAAAAAAAAAAAAAAAAAAAAAAAAAAAAAAAAAAAAAAAAAAAAAAAAAAAAAAAAAAAAAAAAAAAAAAAAAAAAAAAAAAAAAAAAAAAAAAAAAAAAAAAAAAAAAAAAAAAAAAAAAAAAAAAAAAAAAAAAAAAAAAAAAAAAAAAAAAAAAAAAAAAAAAAAAAAAAAAAAAAAAAAAAAAAAAAAAAAAAAAAAAAAAAAAAAAAAAAAAAAAAAAAAAAAAAAAAAAAAAAAAAAAAAAAAAAAAAAAAAAAAAAAAAAAAAAAAAAAAAAAAAAAAAAAAAAAAAAAAAAAAAAAAAAAAAAAAAAAAAAAAAAAAAAAAAAAAAAAAAAAAAAAAAAAAAAAAAAAAAAAAAAAAAAAAAAAAAAAAAAAAAAAAAAAAAAAAAAAAAAAAAAAAAAAAAAAAAAAAAAAAAAAAAAAAAAAAAAAAAAAAAAAAAAAAAAAAAAAAAAAAAAAAAAAAAAAAAAAAAAAAAAAAAAAAAAAAAAAAAAAAAAAAAAAAAAAAAAAAAAAAAAAAAAAAAAAAAAAAAAAAAAAAAAAAAAAAAAAAAAAAAAAAAAAAAAAAAAAAAAAAAAAAAAAAAAAAAAAAAAAAAAAAAAAAAAAAAAAAAAAAAAAAAAAAAAAAAAAAAAAAAAAAAAAAAAAAAAAAAAAAAAAAAAAAAAAAAAAAAAAAAAAAAAAAAAAAAAAAAAAAAAAAAAAAAAAAAAAAAAAAAAAAAAAAAAAAAAAAAAAAAAAAAAAAAAAAAAAAAAAAAAAAAAAAAAAAAAAAAAAAAAAAAAAAAAAAAAAAAAAAAAAAAAAAAAAAAAAAAAAAAAAAAAAAAAAAAAAAAAAAAAAAAAAAAAAAAAAAAAAAAAAAAAAAAAAAAAAAAAAAAAAAAAAAAAAAAAAAAAAAAAAAAAAAAAAAAAAAAAAAAAAAAAAAAAAAAAAAAAAAAAAAAAAAAAAAAAAAAAAAAAAAAAAAAAAAAAAAAAAAAAAAAAAAAAAAAAAAAAAAAAAAAAAAAAAAAAAAAAAAAAAAAAAAAAAAAAAAAAAAAAAAAAAAAAAAAAAAAAAAAAAAAAAAAAAAAAAAAAAAAAAAAAAAAAAAAAAAAAAAAAAAAAAAAAAAAAAAAAAAAAAAAAAAAAAAAAAAAAAAAAAAAAAAAAAAAAAAAAAAAAAAAAAAAAAAAAAAAAAAAAAAAAAAAAAAAAAAAAAAAAAAAAAAAAAAAAAAAAAAAAAAAAAAAAAAAAAAAAAAAAAAAAAAAAAAAAAAAAAAAAAAAAAAAAAAAAAAAAAAAAAAAAAAAAAAAAAAAAAAAAAAAAAAAAAAAAAAAAAAAAAAAAAAAAAAAAAAAAAAAAAAAAAAAAAAAAAAAAAAAAAAAAAAAAAAAAAAAAAAAAAAAAAAAAAAAAAAAAAAAAAAAAAAAAAAAAAAAAAAAAAAAAAAAAAAAAAAAAAAAAAAAAAAAAAAAAAAAAAAAAAAAAAAAAAAAAAAAAAAAAAAAAAAAAAAAAAAAAAAAAAAAAAAAAAAAAAAAAAAAAAAAAAAAAAAAAAAAAAAAAAAAAAAAAAAAAAAAAAAAAAAAAAAAAAAAAAAAAAAAAAAAAAAAAAAAAAAAAAAAAAAAAAAAAAAAAAAAAAAAAAAAAAAAAAAAAAAAAAAAAAAAAAAAAAAAAAAAAAAAAAAAAAAAAAAAAAAAAAAAAAAAAAAAAAAAAAAAAAAAAAAAAAAAAAAAAAAAAAAAAAAAAAAAAAAAAAAAAAAAAAAAAAAAAAAAAAAAAAAAAAAAAAAAAAAAAAAAAAAAAAAAAAAAAAAAAAAAAAAAAAAAAAAAAAAAAAAAAAAAAAAAAAAAAAAAAAAAAAAAAAAAAAAAAAAAAAAAAAAAAAAAAAAAAAAAAAAAAAAAAAAAAAAAAAAAAAAAAAAAAAAAAAAAAAAAAAAAAAAAAAAAAAAAAAAAAAAAAAAAAAAAAAAAAAAAAAAAAAAAAAAAAAAAAAAAAAAAAAAAAAAAAAAAAAAAAAAAAAAAAAAAAAAAAAAAAAAAAAAAAAAAAAAAAAAAAAAAAAAAAAAAAAAAAAAAAAAAAAAAAAAAAAAAAAAAAAAAAAAAAAAAAAAAAAAAAAAAAAAAAAAAAAAAAAAAAAAAAAAAAAAAAAAAAAAAAAAAAAAAAAAAAAAAAAAAAAAAAAAAAAAAAAAAAAAAAAAAAAAAAAAAAAAAAAAAAAAAAAAAAAAAAAAAAAAAAAAAAAAAAAAAAAAAAAAAAAAAAAAAAAAAAAAAAAAAAAAAAAAAAAAAAAAAAAAAAAAAAAAAAAAAAAAAAAAAAAAAAAAAAAAAAAAAAAAAAAAAAAAAAAAAAAAAAAAAAAAAAAAAAAAAPZZAQA2Y8HjppR7BKdAGDZo38dB0h4zuiuB4al+RuH7Zkl3MGA1Qs9t/wcI8yVAm0xzdyfZ7QOStzZgMtL3L6RbMl9DyMnIwlVsd6m/q63/dOEEIQjmCfo0+8GirH+jp25QbtD8ttCtIY26EwoaKOd17AGjIQj2D3hucYO1jtGjJRR95B61mTMfurUJ35SHlb6/4zjT/aPyqfjfxhoVt70ySrBbCtTeBwyRKqL2+8Tsd4khEODp+4WmvgEZTFhRYDoub5yqEfPS/vHzzHGj3Nh/+oE0keuS42aJfrVmO8rDWYkKMphFHFHNEE1achlbfYD3JNei1L8S89zebz07CVrUmKSA</c2pa:manifest></metadata>
  <defs>
    <style>
      .cls-1 {
        fill: #efbf4f;
        stroke-width: 0px;
      }
    </style>
  </defs>
  <path class="cls-1" d="m104.84,70.27c-21.73-28.04-56.95-28.04-78.68,0l-4.16,5.37,4.16,5.37c21.73,28.04,56.95,28.04,78.68,0l4.16-5.37-4.16-5.37Zm-22.96,4.92c.15,4.31-1.38,8.43-4.32,11.58-2.94,3.16-6.93,4.98-11.25,5.14-.2,0-.39.01-.59.01-4.09,0-7.99-1.54-11-4.33-2.4-2.23-4.04-5.09-4.75-8.27-.09-.39.16-.77.54-.86.19-.04.38,0,.54.09.16.1.28.26.32.45.65,2.9,2.15,5.5,4.33,7.53,2.88,2.68,6.63,4.08,10.56,3.94,3.93-.14,7.57-1.8,10.25-4.68,2.68-2.88,4.08-6.63,3.94-10.56-.14-3.93-1.8-7.57-4.68-10.25-2.88-2.68-6.61-4.08-10.56-3.94-3.93.14-7.57,1.8-10.25,4.68-.65.7-1.23,1.46-1.73,2.26-.21.34-.66.44-.99.23-.16-.1-.28-.26-.32-.45s-.01-.38.09-.54c.55-.88,1.19-1.71,1.9-2.48,2.94-3.16,6.94-4.98,11.25-5.14,4.33-.15,8.43,1.38,11.58,4.32,3.16,2.94,4.98,6.94,5.14,11.25Zm-12.31-.84c.87,0,1.63-.49,2.03-1.2.37.8.58,1.68.58,2.62,0,3.45-2.8,6.25-6.25,6.25s-6.25-2.8-6.25-6.25,2.8-6.25,6.25-6.25c.89,0,1.74.19,2.5.52-.69.4-1.16,1.15-1.16,2,0,1.27,1.03,2.31,2.31,2.31Zm.58-3.96c.14.03.26.07.36.11l.06.62c-.11-.05-.23-.09-.36-.12-.13-.03-.27-.05-.42-.05-.1,0-.17,0-.22.02-.05.01-.09.03-.11.06-.02.03-.03.06-.03.09h0s.01.08.04.11c.02.03.07.06.14.09.07.03.16.06.28.1.18.06.32.11.44.17.12.06.21.14.27.23.06.1.09.22.09.39v.03c0,.27-.09.47-.26.6-.11.08-.27.13-.45.16v.38h-.6v-.36s-.06,0-.08,0c-.1-.01-.2-.03-.29-.06-.09-.02-.17-.05-.23-.07l-.06-.66c.11.05.24.09.38.13.15.04.3.06.46.06.14,0,.25-.01.3-.04.06-.03.09-.08.09-.14h0c0-.05-.01-.09-.04-.12-.03-.03-.07-.06-.14-.08-.06-.03-.15-.06-.26-.09-.18-.06-.33-.12-.45-.19s-.21-.15-.28-.25c-.06-.1-.09-.23-.09-.39v-.03c0-.24.08-.43.25-.55.11-.08.26-.13.44-.16v-.37h.6v.37c.06,0,.13,0,.17.02Zm-2.71-4.53c-2.67-.31-5.28.43-7.37,2.08-2.1,1.66-3.43,4.03-3.74,6.68-.31,2.65.43,5.27,2.08,7.37,1.66,2.1,4.03,3.43,6.68,3.74,2.05.24,4.09-.14,5.91-1.12,1.77-.95,3.2-2.4,4.13-4.17.18-.35.61-.48.97-.3.17.09.3.24.35.42.06.18.04.38-.05.55-1.06,2.03-2.7,3.68-4.72,4.77-1.66.89-3.52,1.36-5.4,1.36-.45,0-.91-.03-1.36-.08-3.03-.36-5.74-1.88-7.64-4.28-1.9-2.4-2.74-5.39-2.38-8.42.36-3.03,1.88-5.75,4.28-7.64,2.4-1.89,5.39-2.74,8.43-2.38,4.26.51,7.85,3.32,9.37,7.34.07.18.06.37-.02.55-.08.17-.22.31-.4.37-.37.14-.79-.05-.92-.42-1.33-3.52-4.47-5.98-8.19-6.42Zm14.65,26.08c-4.32,4.32-10.06,6.7-16.17,6.7s-11.85-2.38-16.17-6.7c-4.32-4.32-6.7-10.06-6.7-16.17s2.38-11.85,6.7-16.17c4.32-4.32,10.06-6.7,16.17-6.7.87,0,1.75.05,2.6.15.19.02.36.12.48.27.12.15.17.34.15.53-.02.19-.11.36-.26.48-.15.12-.34.18-.53.15-.81-.09-1.63-.14-2.44-.14-5.72,0-11.1,2.23-15.15,6.28-4.05,4.05-6.28,9.43-6.28,15.16s2.23,11.11,6.28,15.15c4.05,4.05,9.43,6.28,15.15,6.28s11.11-2.23,15.16-6.28c4.05-4.05,6.28-9.43,6.28-15.15,0-4.66-1.47-9.09-4.24-12.81-.12-.15-.16-.34-.13-.53.03-.19.13-.36.28-.47.15-.11.34-.16.53-.13.19.03.36.13.47.28,2.96,3.97,4.53,8.7,4.53,13.67,0,6.11-2.38,11.85-6.7,16.17Z"/>
  <path class="cls-1" d="m174.97,101.17l-7.22-12.17h-.05l-5.05-8.56-9.42-15.86-21.58,36.6h-12.52l27.18-45.23c1.27-2.12,3.56-3.41,6.03-3.41h6.64l29.23,48.65h-13.23Z"/>
  <path class="cls-1" d="m233.49,49.69h10.76v28.75c0,15.93-8,23.44-28.24,23.44s-28.24-7.51-28.24-23.44v-28.75h11.4v28.75c0,9.14,3.96,12.61,17.2,12.61s17.13-3.47,17.13-12.61v-28.75Z"/>
  <path class="cls-1" d="m248.21,49.69h13.45l21.51,36.75,21.44-36.75h12.67l-29.23,48.65h-10.62l-29.23-48.65Z"/>
  <path class="cls-1" d="m331.91,87.29v-10.69h26.76c5.37,0,8.56-3.19,8.56-7.93s-3.18-7.93-8.56-7.93h-25.62v40.43h-10.96v-51.47h36.59c12.17,0,19.32,7.22,19.32,18.63s-7.15,18.97-19.32,18.97h-26.77Z"/>
</svg>